<svg xmlns="http://www.w3.org/2000/svg" width="100%" height="100%" viewBox="0 0 108 25" fill="none" preserveAspectRatio="xMidYMid meet" aria-hidden="true" role="img">
<path d="M27.1367 0.988281H27.1416L27.1338 0.992188L22.6201 8.61426V3.53418L18.0938 0.988281H27.123L27.1436 0.976562L27.1367 0.988281Z" fill="#68E4FF"></path>
<path d="M13.5674 8.62109H13.5713L13.5645 8.62402L9.0498 16.2471V11.168L4.52441 8.62109H13.5537L13.5742 8.60938L13.5674 8.62109Z" fill="#68E4FF"></path>
<path d="M18.0913 0.988281H18.0962L18.0884 0.992188L13.5747 8.61426V3.53418L9.04834 0.988281H18.0776L18.0981 0.976562L18.0913 0.988281Z" fill="#68E4FF"></path>
<path d="M22.6118 8.62109H22.6196L22.6069 8.62695L18.0952 16.2471V11.167L13.5718 8.62109H22.5981L22.6187 8.60938L22.6118 8.62109Z" fill="#68E4FF"></path>
<path d="M18.0913 16.2607H18.0962L18.0894 16.2637L13.5747 23.8877V18.8076L9.04834 16.2607H18.0786L18.0981 16.25L18.0913 16.2607Z" fill="#68E4FF"></path>
<path d="M9.04199 0.988281H9.04688L9.03906 0.992188L4.52539 8.61426V3.53418L-0.000976562 0.988281H9.02832L9.04883 0.976562L9.04199 0.988281Z" fill="#68E4FF"></path>
<path d="M29.5576 24.0037V0.992188H37.0507C38.5758 0.992188 39.9352 1.32003 41.1287 1.97573C42.3223 2.63142 43.2396 3.51661 43.8806 4.63128C44.5437 5.72411 44.8753 6.959 44.8753 8.33595C44.8753 9.69105 44.5437 10.9259 43.8806 12.0406C43.2396 13.1553 42.3223 14.0405 41.1287 14.6962C39.9352 15.33 38.5758 15.6469 37.0507 15.6469H33.8346V24.0037H29.5576ZM36.686 11.5488C37.3933 11.5488 38.0122 11.4068 38.5426 11.1227C39.0952 10.8385 39.5262 10.4451 39.8357 9.9424C40.1451 9.4397 40.2999 8.89329 40.2999 8.30317C40.2999 7.71304 40.1451 7.16663 39.8357 6.66394C39.5262 6.16124 39.0952 5.76782 38.5426 5.48369C38.0122 5.19955 37.3933 5.05749 36.686 5.05749H33.8346V11.5488H36.686Z" fill="#1e0918"></path>
<path d="M46.8179 24.0037V8.72437H57.1292V12.4618H50.8297V24.0037H46.8179Z" fill="#1e0918"></path>
<path d="M59.9378 24.0037V20.0679V12.4618V8.72437H64.0822V20.0679V24.0037H59.9378Z" fill="#1e0918"></path>
<path d="M67.0348 24.0037V8.72437H82.4187C83.6344 8.72437 84.7396 9.0085 85.7342 9.57677C86.7289 10.1232 87.5025 10.8772 88.0551 11.8389C88.6298 12.8006 88.9171 13.8606 88.9171 15.019V24.0037H84.8722V15.0846C84.8722 14.3196 84.6291 13.6967 84.1428 13.2159C83.6565 12.7132 83.0266 12.4618 82.253 12.4618H79.9653V24.0037H75.9535V12.4618H71.0465V24.0037H67.0348Z" fill="#1e0918"></path>
<path d="M99.0108 24.2021C97.5519 24.2021 96.2036 23.8524 94.9659 23.153C93.7281 22.4535 92.7445 21.5028 92.0151 20.3007C91.3077 19.0986 90.9541 17.7763 90.9541 16.3337C90.9541 14.8912 91.3077 13.5689 92.0151 12.3668C92.7445 11.1647 93.7281 10.2139 94.9659 9.51453C96.2036 8.81513 97.5519 8.46543 99.0108 8.46543H99.0771C100.558 8.46543 101.917 8.81513 103.155 9.51453C104.393 10.2139 105.366 11.1647 106.073 12.3668C106.802 13.5689 107.167 14.8912 107.167 16.3337C107.167 17.7763 106.802 19.0986 106.073 20.3007C105.366 21.5028 104.393 22.4535 103.155 23.153C101.917 23.8524 100.558 24.2021 99.0771 24.2021H99.0108ZM99.0771 20.2351C99.7844 20.2351 100.436 20.0603 101.033 19.7106C101.652 19.339 102.127 18.8582 102.459 18.268C102.813 17.6561 102.989 17.0113 102.989 16.3337C102.989 15.6343 102.813 14.9896 102.459 14.3994C102.127 13.7875 101.652 13.3066 101.033 12.9569C100.436 12.6072 99.7844 12.4324 99.0771 12.4324H99.0108C98.3035 12.4324 97.6514 12.6072 97.0546 12.9569C96.4578 13.3066 95.9826 13.7875 95.629 14.3994C95.2974 14.9896 95.1316 15.6343 95.1316 16.3337C95.1316 17.0331 95.2974 17.6888 95.629 18.3008C95.9826 18.8909 96.4578 19.3609 97.0546 19.7106C97.6514 20.0603 98.3035 20.2351 99.0108 20.2351H99.0771Z" fill="#1e0918"></path>
<path d="M59.9424 5.84432C60.5171 6.41259 61.2023 6.69672 61.998 6.69672C62.7937 6.69672 63.4679 6.41259 64.0204 5.84432C64.5951 5.27605 64.8825 4.60943 64.8825 3.84445C64.8825 3.05762 64.5951 2.391 64.0204 1.84459C63.4679 1.27632 62.7937 0.992188 61.998 0.992188C61.2023 0.992188 60.5171 1.27632 59.9424 1.84459C59.3898 2.391 59.1135 3.05762 59.1135 3.84445C59.1135 4.60943 59.3898 5.27605 59.9424 5.84432Z" fill="#1e0918"></path>
</svg>
